<?xml version="1.0" encoding="iso-8859-1"?>
<!-- Uploaded to: SVG Repo, www.svgrepo.com, Generator: SVG Repo Mixer Tools -->
<!DOCTYPE svg PUBLIC "-//W3C//DTD SVG 1.1//EN" "http://www.w3.org/Graphics/SVG/1.1/DTD/svg11.dtd">
<svg fill="#000000" version="1.1" id="Capa_1" xmlns="http://www.w3.org/2000/svg" xmlns:xlink="http://www.w3.org/1999/xlink" 
	 width="800px" height="800px" viewBox="0 0 368.823 368.823"
	 xml:space="preserve">
<g>
	<g>
		<g>
			<path d="M348.137,163.275c3.831-2.063,7.353-4.849,10.522-8.331c8.085-8.878,11.447-19.554,9.725-30.873
				c-1.762-11.564-8.78-23.005-20.862-34.006c-5.929-5.396-13.451-9.438-22.438-12.059c2.272-3.695,3.924-7.871,4.933-12.488
				c1.095-5.012,2.166-14.949-2.931-25.191c-6.25-12.561-19.425-21.115-39.159-25.424c-3.396-0.74-6.968-1.116-10.617-1.116
				c-27.03,0-52.717,20.703-53.8,21.585l-3.582,2.926c-1.801,1.471-2.351,3.988-1.327,6.075l2.037,4.151
				c0.773,1.579,19.313,38.756,50.022,45.461c0.558,0.122,1.121,0.24,1.688,0.354c0.427,14.004,3.657,40.083,20.68,55.581
				c0.426,0.388,0.854,0.772,1.286,1.152c-6.632,12.339-16.873,36.543-9.887,58.468c0.175,0.547,0.354,1.097,0.538,1.645
				c-11.911,7.37-32.881,23.209-37.791,45.692c-0.123,0.563-0.24,1.129-0.354,1.707c-13.79,0.444-40.096,3.658-55.577,20.662
				c-2.54,2.787-4.821,5.596-6.831,8.398c-2.008-2.806-4.29-5.611-6.827-8.398c-15.484-17.005-41.79-20.219-55.579-20.663
				c-0.114-0.581-0.232-1.146-0.354-1.704c-4.909-22.479-25.88-38.322-37.792-45.694c0.185-0.544,0.364-1.093,0.54-1.645
				c6.987-21.927-3.255-46.13-9.887-58.468c0.432-0.38,0.861-0.764,1.288-1.152c17.015-15.494,20.249-41.576,20.676-55.581
				c0.569-0.113,1.133-0.23,1.69-0.353c30.71-6.705,49.249-43.882,50.022-45.46l2.037-4.152c1.022-2.087,0.474-4.604-1.327-6.075
				l-3.584-2.927c-1.08-0.881-26.766-21.584-53.797-21.584c-3.65,0-7.223,0.375-10.619,1.116
				C61.166,19.213,47.99,27.768,41.74,40.329c-5.097,10.242-4.023,20.18-2.93,25.194c1.008,4.616,2.658,8.791,4.931,12.486
				c-8.988,2.623-16.514,6.664-22.438,12.059c-12.083,11-19.103,22.442-20.864,34.006c-1.723,11.318,1.64,21.994,9.725,30.872
				c3.171,3.483,6.691,6.268,10.522,8.332c-6.479,6.773-10.977,14.04-13.411,21.679C1.14,204.2,1.96,219.885,9.713,231.579
				c6.323,9.538,15.466,13.575,20.352,15.133c4.438,1.416,8.901,2.078,13.28,1.947c-2.226,9.104-2.488,17.652-0.776,25.49
				c8.488,38.864,32.056,43.061,41.795,43.061c2.889,0,5.857-0.328,8.823-0.975c2.872-0.629,7.565-2.028,12.442-5.051
				c2.626,9.041,6.68,16.606,12.1,22.56c12.865,14.128,26.203,21.292,39.643,21.292c9.216,0,17.942-3.511,25.237-10.155
				c0.621-0.563,1.223-1.146,1.804-1.739c0.581,0.596,1.183,1.176,1.804,1.739c7.295,6.646,16.021,10.155,25.238,10.155
				c13.438,0,26.774-7.164,39.638-21.292c5.422-5.952,9.479-13.519,12.104-22.562c4.876,3.023,9.569,4.425,12.443,5.054
				c2.964,0.646,5.934,0.974,8.822,0.974c9.738,0,33.308-4.196,41.793-43.06c1.712-7.836,1.447-16.384-0.776-25.491
				c4.377,0.125,8.843-0.532,13.279-1.947c4.888-1.558,14.029-5.595,20.354-15.132c7.753-11.693,8.573-27.378,2.438-46.621
				C359.114,177.315,354.614,170.047,348.137,163.275z M85.517,36.059c1.88-0.411,3.898-0.619,6-0.619
				c12.153,0,25.041,6.745,32.577,11.47c-5.82,8.915-16.906,22.943-30.549,25.921c-4.798,1.048-9.229,1.579-13.175,1.579
				c-11.746,0-18.421-4.419-20.406-13.509C56.646,45.705,72.029,39.003,85.517,36.059z M21.848,127.331
				c0.966-6.345,5.949-13.894,14.034-21.255C44.936,97.831,59.91,96.1,70.876,96.1c1.277,0,2.559,0.024,3.838,0.073
				c-0.581,10.631-3.166,28.333-13.493,37.736c-8.509,7.747-16.828,12.013-23.425,12.013c-4.417,0-8.22-1.817-11.623-5.555
				C22.535,136.369,21.12,132.105,21.848,127.331z M42.292,227.02c-1.796,0-3.695-0.316-5.649-0.939
				c-14.819-4.725-12.933-21.396-8.739-34.55c4.224-13.253,19.241-23,28.669-27.978c4.81,9.516,11.419,26.157,7.194,39.413
				C60.268,213.938,53.702,227.02,42.292,227.02z M88.564,295.078c-1.449,0.315-2.863,0.478-4.203,0.478
				c-13.014,0-18.518-16.308-20.641-26.027c-2.971-13.598,5.17-29.555,10.849-38.579c8.913,5.817,22.945,16.906,25.925,30.549
				C103.438,274.985,103.761,291.76,88.564,295.078z M168.031,328.869c-3.336,3.036-6.823,4.512-10.66,4.512
				c-6.893,0-15.284-5.049-23.631-14.218c-9.365-10.284-10.298-28.156-9.896-38.812c9.935,0.595,28.31,3.129,37.729,13.474
				c7.36,8.082,11.616,16.062,11.983,22.474C173.833,321.12,172.026,325.231,168.031,328.869z M235.083,319.164
				c-8.347,9.168-16.737,14.217-23.631,14.217c-3.839,0-7.326-1.477-10.662-4.514c-3.995-3.636-5.802-7.748-5.522-12.571
				c0.367-6.408,4.623-14.39,11.981-22.472c9.42-10.345,27.795-12.878,37.729-13.474
				C245.38,291.008,244.448,308.879,235.083,319.164z M288.452,74.411c-3.941,0-8.374-0.531-13.176-1.579
				c-13.593-2.968-24.698-17.007-30.535-25.929c7.534-4.724,20.413-11.462,32.562-11.462c2.104,0,4.12,0.208,6,0.618
				c13.487,2.945,28.869,9.646,25.555,24.843C306.873,69.992,300.199,74.411,288.452,74.411z M305.101,269.528
				c-2.122,9.721-7.628,26.026-20.642,26.026c-1.34,0-2.754-0.159-4.202-0.477c-15.193-3.318-14.875-20.093-11.931-33.58
				c2.967-13.588,17.011-24.697,25.934-30.537C299.938,239.988,308.069,255.936,305.101,269.528z M332.181,226.081
				c-1.953,0.624-3.854,0.939-5.648,0.939c-11.409,0-17.978-13.082-21.477-24.056c-4.223-13.253,2.387-29.896,7.193-39.414
				c9.428,4.978,24.445,14.724,28.67,27.979C345.112,204.684,346.999,221.356,332.181,226.081z M342.649,140.365
				c-3.405,3.739-7.207,5.557-11.622,5.557c-6.602-0.001-14.919-4.267-23.428-12.011c-10.289-9.371-12.886-27.091-13.479-37.738
				c1.274-0.048,2.554-0.072,3.824-0.072c10.967,0,25.939,1.731,34.995,9.977c8.085,7.361,13.066,14.909,14.032,21.255
				C347.703,132.105,346.288,136.369,342.649,140.365z"/>
			<path d="M126.498,142.688c-1.218,3.748-0.121,7.861,2.802,10.505l21.32,19.292l-5.909,28.139
				c-0.811,3.856,0.72,7.829,3.908,10.146c3.189,2.314,7.439,2.546,10.856,0.582l24.937-14.316l24.937,14.313
				c1.548,0.891,3.266,1.328,4.979,1.328c2.071,0,4.134-0.643,5.879-1.909c3.188-2.315,4.72-6.289,3.908-10.146l-5.909-28.139
				l21.32-19.292c2.923-2.644,4.02-6.757,2.802-10.505s-4.523-6.431-8.44-6.853l-28.59-3.075l-11.758-26.238
				c-1.611-3.597-5.187-5.911-9.125-5.911s-7.514,2.314-9.126,5.911l-11.758,26.238l-28.589,3.075
				C131.021,136.258,127.715,138.94,126.498,142.688z"/>
		</g>
	</g>
</g>
</svg>