<?xml version="1.0" encoding="utf-8"?>
<!-- Generator: Adobe Illustrator 27.0.0, SVG Export Plug-In . SVG Version: 6.00 Build 0)  -->
<svg version="1.1" id="Layer_1" xmlns="http://www.w3.org/2000/svg" xmlns:xlink="http://www.w3.org/1999/xlink" x="0px" y="0px"
	 viewBox="0 0 800 800" style="enable-background:new 0 0 800 800;" xml:space="preserve">
<style type="text/css">
	.st0{fill:#2E5868;}
	.st1{fill:#151F28;}
	.st2{fill:#FFFFFF;}
</style>
<path class="st0" d="M601,765.9c-40.4-46.1-95.2-76.8-155.1-87.2V560.3c0-6.9-5.6-12.5-12.5-12.5h-66.8c-6.9,0-12.5,5.6-12.5,12.5
	v118.4c-59.9,10.4-114.6,41.1-155.1,87.2c-3.2,3.7-4,8.9-2,13.4c2,4.5,6.5,7.4,11.4,7.4h383.2c4.9,0,9.4-2.9,11.4-7.4
	C605,774.8,604.2,769.5,601,765.9z"/>
<g>
	<path class="st0" d="M687.3,273.9c-62.2,0-112.7,50.6-112.7,112.7s50.6,112.7,112.7,112.7S800,448.8,800,386.6
		S749.4,273.9,687.3,273.9z M687.3,420.9c-18.9,0-34.2-15.4-34.2-34.2s15.4-34.2,34.2-34.2s34.2,15.4,34.2,34.2
		C721.5,405.5,706.1,420.9,687.3,420.9z"/>
	<path class="st0" d="M112.7,273.9C50.6,273.9,0,324.5,0,386.6s50.6,112.7,112.7,112.7s112.7-50.6,112.7-112.7
		S174.9,273.9,112.7,273.9z M112.7,420.9c-18.9,0-34.2-15.4-34.2-34.2s15.4-34.2,34.2-34.2s34.2,15.4,34.2,34.2
		C147,405.5,131.6,420.9,112.7,420.9z"/>
</g>
<path class="st1" d="M653.9,153.7H146.1c-6.9,0-12.5,5.6-12.5,12.5v140.3c0,71.4,27.6,138.4,77.8,188.6
	c50.2,50.2,117.2,77.8,188.6,77.8s138.4-27.6,188.6-77.8c50.2-50.2,77.8-117.2,77.8-188.6V166.2
	C666.4,159.3,660.8,153.7,653.9,153.7z"/>
<g>
	<path class="st2" d="M506.9,492.8c-4.2,0-8.3-2.1-10.7-6c-3.6-5.9-1.8-13.6,4.1-17.2c12.7-7.8,24.5-17.1,35.1-27.7
		c5.1-5.1,10-10.6,14.5-16.3c4.3-5.4,12.2-6.3,17.6-2c5.4,4.3,6.3,12.2,2,17.6c-5.1,6.4-10.6,12.6-16.4,18.4
		c-12,12-25.3,22.5-39.7,31.4C511.4,492.2,509.1,492.8,506.9,492.8z"/>
	<path class="st2" d="M587.6,399.2c-1.6,0-3.3-0.3-4.9-1c-6.4-2.7-9.3-10.1-6.6-16.4c10.1-23.7,15.2-49,15.2-75.3
		c0-6.9,5.6-12.5,12.5-12.5c6.9,0,12.5,5.6,12.5,12.5c0,29.6-5.8,58.2-17.2,85.1C597.1,396.3,592.5,399.2,587.6,399.2z"/>
</g>
<path class="st1" d="M693.9,153.7H106.1c-6.9,0-12.5,5.6-12.5,12.5v73.5c0,6.9,5.6,12.5,12.5,12.5h587.9c6.9,0,12.5-5.6,12.5-12.5
	v-73.5C706.5,159.3,700.9,153.7,693.9,153.7z"/>
<path class="st2" d="M518.7,362.5c-1.8-5-6.5-8.4-11.8-8.4h-71.4l-23.7-65.2c-1.8-5-6.5-8.2-11.8-8.2s-10,3.3-11.8,8.2l-23.7,65.2
	h-71.4c-5.3,0-10.1,3.4-11.8,8.4c-1.8,5-0.1,10.6,4,13.9l60.3,47.9l-17.9,65.5c-1.4,5.2,0.6,10.7,5.1,13.7c4.5,3,10.4,2.8,14.6-0.5
	l52.4-40.8l52.4,40.8c2.3,1.8,5,2.6,7.7,2.6c2.4,0,4.8-0.7,6.9-2.1c4.5-3,6.6-8.5,5.1-13.7l-17.9-65.5l60.3-47.9
	C518.9,373.1,520.5,367.5,518.7,362.5z"/>
<g>
	<path class="st0" d="M259.7,46.8h-20.9V25.9c0-6.9-5.6-12.5-12.5-12.5c-6.9,0-12.5,5.6-12.5,12.5v20.9h-20.9
		c-6.9,0-12.5,5.6-12.5,12.5s5.6,12.5,12.5,12.5h20.9v20.9c0,6.9,5.6,12.5,12.5,12.5c6.9,0,12.5-5.6,12.5-12.5V71.8h20.9
		c6.9,0,12.5-5.6,12.5-12.5S266.6,46.8,259.7,46.8z"/>
	<path class="st0" d="M620.5,46.8h-20.9V25.9c0-6.9-5.6-12.5-12.5-12.5c-6.9,0-12.5,5.6-12.5,12.5v20.9h-20.9
		c-6.9,0-12.5,5.6-12.5,12.5s5.6,12.5,12.5,12.5h20.9v20.9c0,6.9,5.6,12.5,12.5,12.5c6.9,0,12.5-5.6,12.5-12.5V71.8h20.9
		c6.9,0,12.5-5.6,12.5-12.5S627.4,46.8,620.5,46.8z"/>
	<path class="st0" d="M433.4,46.8h-20.9V25.9c0-6.9-5.6-12.5-12.5-12.5c-6.9,0-12.5,5.6-12.5,12.5v20.9h-20.9
		c-6.9,0-12.5,5.6-12.5,12.5s5.6,12.5,12.5,12.5h20.9v20.9c0,6.9,5.6,12.5,12.5,12.5c6.9,0,12.5-5.6,12.5-12.5V71.8h20.9
		c6.9,0,12.5-5.6,12.5-12.5S440.3,46.8,433.4,46.8z"/>
</g>
</svg>
