<?xml version="1.0" encoding="utf-8"?>
<!-- Generator: Adobe Illustrator 27.0.0, SVG Export Plug-In . SVG Version: 6.00 Build 0)  -->
<svg version="1.1" id="Layer_1" xmlns="http://www.w3.org/2000/svg" xmlns:xlink="http://www.w3.org/1999/xlink" x="0px" y="0px"
	 viewBox="0 0 800 800" style="enable-background:new 0 0 800 800;" xml:space="preserve">
<style type="text/css">
	.st0{fill:#151F28;}
	.st1{fill:#2E5868;}
	.st2{fill:#FFFFFF;}
</style>
<path class="st0" d="M760.2,656.4L477.9,374.1c-4.9-4.9-12.8-4.9-17.6,0L338,496.4c-2.3,2.3-3.7,5.5-3.7,8.8c0,3.3,1.3,6.5,3.7,8.8
	l282.3,282.3c2.4,2.4,5.6,3.7,8.8,3.7c1.4,0,2.9-0.2,4.3-0.8c4.6-1.7,7.7-5.8,8.1-10.7l8.5-102.4l102.4-8.5c4.8-0.4,9-3.6,10.7-8.1
	C764.7,664.9,763.6,659.8,760.2,656.4z"/>
<path class="st0" d="M462,496.4L339.7,374.1c-4.9-4.9-12.8-4.9-17.6,0L39.8,656.4c-3.4,3.4-4.6,8.6-2.9,13.1
	c1.7,4.6,5.8,7.7,10.7,8.1l102.4,8.5l8.5,102.4c0.4,4.8,3.6,9,8.1,10.7c1.4,0.5,2.9,0.8,4.3,0.8c3.3,0,6.4-1.3,8.8-3.7L462,514.1
	c2.3-2.3,3.7-5.5,3.7-8.8C465.7,502,464.4,498.8,462,496.4z"/>
<path class="st1" d="M700.7,246.9l-78.9-66.2L604,79.4c-1.1-6-6.2-10.3-12.3-10.3H488.8L409.9,2.9c-4.6-3.9-11.4-3.9-16,0
	l-78.9,66.2H212.1c-6.1,0-11.2,4.3-12.3,10.3L182,180.8l-78.9,66.2c-4.6,3.9-5.8,10.6-2.8,15.8l51.5,89.1l-17.9,101.4
	c-1.1,6,2.3,11.8,8,13.9l96.7,35.2l51.5,89.1c3,5.2,9.4,7.6,15.1,5.5l96.7-35.2l96.7,35.2c1.4,0.5,2.8,0.8,4.3,0.8
	c4.4,0,8.5-2.3,10.8-6.2l51.5-89.1l96.7-35.2c5.7-2.1,9.1-7.9,8-13.9l-17.9-101.4l51.5-89.1C706.6,257.5,705.4,250.8,700.7,246.9z"
	/>
<path class="st0" d="M400,107.1c-109.6,0-198.8,89.2-198.8,198.8S290.4,504.6,400,504.6s198.8-89.2,198.8-198.8
	S509.6,107.1,400,107.1z"/>
<path class="st2" d="M543.6,266.1c-1.7-5.1-6.5-8.6-11.9-8.6h-92.1l-28.5-87.6c-1.7-5.1-6.5-8.6-11.9-8.6s-10.2,3.5-11.9,8.6
	L359,257.5h-92.1c-5.4,0-10.2,3.5-11.9,8.6c-1.7,5.1,0.2,10.8,4.5,13.9l74.5,54.1l-28.5,87.6c-1.7,5.1,0.2,10.8,4.5,13.9
	c2.2,1.6,4.8,2.4,7.3,2.4c2.6,0,5.1-0.8,7.3-2.4l74.5-54.1l74.5,54.1c4.4,3.2,10.3,3.2,14.7,0c4.4-3.2,6.2-8.8,4.5-13.9l-28.5-87.6
	L539,280C543.4,276.9,545.2,271.2,543.6,266.1z"/>
</svg>
