<?xml version="1.0" encoding="utf-8"?>
<!-- Generator: Adobe Illustrator 27.0.0, SVG Export Plug-In . SVG Version: 6.00 Build 0)  -->
<svg version="1.1" id="Layer_1" xmlns="http://www.w3.org/2000/svg" xmlns:xlink="http://www.w3.org/1999/xlink" x="0px" y="0px"
	 viewBox="0 0 800 800" style="enable-background:new 0 0 800 800;" xml:space="preserve">
<style type="text/css">
	.st0{fill:#151F28;}
	.st1{fill:#2E5868;}
	.st2{fill:#FFFFFF;}
	.st3{fill:#E6EAEA;}
</style>
<path class="st0" d="M316.3,178c-171.5,0-311,139.5-311,311s139.5,311,311,311s311-139.5,311-311S487.8,178,316.3,178z"/>
<path class="st1" d="M316.3,271.3c-120,0-217.7,97.6-217.7,217.7s97.6,217.7,217.7,217.7c120,0,217.7-97.6,217.7-217.7
	S436.3,271.3,316.3,271.3z"/>
<g>
	<path class="st0" d="M316.3,351.4c-75.9,0-137.6,61.7-137.6,137.6s61.7,137.6,137.6,137.6S453.9,564.9,453.9,489
		S392.2,351.4,316.3,351.4z"/>
</g>
<path class="st2" d="M316.3,410.7c-43.2,0-78.3,35.1-78.3,78.3c0,43.2,35.1,78.3,78.3,78.3c43.2,0,78.3-35.1,78.3-78.3
	S359.5,410.7,316.3,410.7z"/>
<path class="st1" d="M320.9,486.2c-3.2,0-6.3-1.2-8.7-3.6c-4.8-4.8-4.8-12.7,0-17.5l292-292c4.8-4.8,12.7-4.8,17.5,0
	c4.8,4.8,4.8,12.7,0,17.5l-292.1,292C327.2,485,324.1,486.2,320.9,486.2z"/>
<path class="st3" d="M626.9,12.4c0-5-3-9.5-7.6-11.4c-4.6-1.9-9.9-0.9-13.5,2.7L433.3,176.1c-2.3,2.3-3.6,5.5-3.6,8.7v167.8
	c0,0.2,0,0.4,0,0.6c0,0.3,0,0.6,0.1,1c0,0.3,0.1,0.6,0.2,0.9c0.1,0.3,0.1,0.6,0.2,0.9c0.1,0.3,0.2,0.6,0.3,0.9
	c0.1,0.2,0.1,0.4,0.2,0.5c0,0.1,0.1,0.2,0.1,0.3c0.1,0.3,0.3,0.6,0.4,0.9c0.1,0.3,0.3,0.5,0.4,0.8c0.2,0.3,0.3,0.5,0.5,0.7
	c0.2,0.2,0.4,0.5,0.5,0.7c0.2,0.2,0.4,0.4,0.6,0.7l193.6-193.6L626.9,12.4L626.9,12.4z"/>
<path class="st0" d="M793.8,175.4c-1.9-4.6-6.4-7.6-11.4-7.6H626.9L433.3,361.4c0.2,0.2,0.4,0.4,0.6,0.6c0.2,0.2,0.5,0.4,0.7,0.5
	c0.2,0.2,0.5,0.4,0.7,0.5c0.2,0.2,0.5,0.3,0.8,0.4c0.3,0.2,0.6,0.3,0.9,0.4c0.1,0,0.2,0.1,0.3,0.1c0.3,0.1,0.7,0.3,1,0.4
	c0,0,0.1,0,0.1,0c0.5,0.2,1,0.3,1.6,0.4c0.1,0,0.3,0,0.4,0.1c0.5,0.1,1.1,0.1,1.6,0.1h0c0,0,0,0,0,0h167.8c3.3,0,6.4-1.3,8.7-3.6
	l172.5-172.5C794.6,185.4,795.7,180.1,793.8,175.4z"/>
<path class="st1" d="M517.2,277.5c2.2,2.2,5.3,3.6,8.7,3.6h172.9l24.7-24.7H538.3L517.2,277.5z"/>
<path class="st1" d="M538.3,71.1l-24.7,24.7v172.9c0,3.4,1.4,6.5,3.6,8.7l21.1-21.1L538.3,71.1L538.3,71.1z"/>
</svg>
