<?xml version="1.0" encoding="iso-8859-1"?>
<!-- Uploaded to: SVG Repo, www.svgrepo.com, Generator: SVG Repo Mixer Tools -->
<svg height="800px" width="800px" version="1.1" id="Layer_1" xmlns="http://www.w3.org/2000/svg" xmlns:xlink="http://www.w3.org/1999/xlink" 
	 viewBox="0 0 512 512" xml:space="preserve">
<g>
	<path style="fill:#FFD652;" d="M489.655,429.866L338.978,279.189c-0.78-0.78-1.684-1.445-2.708-1.858
		c-3.077-1.241-6.428-0.468-8.622,1.727l-68.685,68.685c-3.092,3.094-3.092,8.107,0,11.199L409.771,509.75
		c4.806,4.804,12.89,1.367,13.512-5.16l4.703-49.376c0.36-3.78,3.352-6.772,7.132-7.132l49.463-4.711
		C491.116,442.747,494.478,434.689,489.655,429.866z"/>
	<path style="fill:#FFD652;" d="M253.036,347.742l-68.554-68.554c-0.78-0.78-1.684-1.445-2.708-1.858
		c-3.077-1.241-6.428-0.468-8.622,1.727L22.507,429.704c-4.643,4.643-2.007,13.007,4.687,13.644l49.688,4.733
		c3.78,0.36,6.772,3.352,7.132,7.132l4.706,49.409c0.613,6.438,8.677,9.958,13.509,5.128l150.808-150.808
		C256.128,355.849,256.128,350.836,253.036,347.742z"/>
</g>
<g>
	<path style="fill:#FB9D46;" d="M327.958,395.825c2.41,1.114,5.089,1.702,7.743,1.702c2.783,0,5.475-0.612,7.99-1.818
		c4.828-2.314,8.322-6.73,9.86-11.858l4.425-14.757c0.753-2.511,3.234-4.089,5.827-3.706l15.761,2.326
		c0.894,0.132,1.796,0.198,2.7,0.198h0.001c6.91,0,13.477-3.88,16.676-10.519c1.229-2.552,1.785-5.377,1.801-8.21l0.046-8.185
		l-61.81-61.81c-0.78-0.78-1.684-1.445-2.708-1.858c-3.077-1.241-6.428-0.468-8.622,1.727l-68.685,68.685
		c-3.092,3.094-3.092,8.107,0,11.199l41.679,41.68l6.217-9.553c1.43-2.197,4.255-3.012,6.636-1.914L327.958,395.825z"/>
	<path style="fill:#FB9D46;" d="M253.036,347.742l-68.554-68.554c-0.78-0.78-1.684-1.445-2.708-1.858
		c-3.077-1.241-6.428-0.468-8.622,1.727l-63.254,63.254l-0.022,5.856c-0.021,5.356,2.281,10.45,6.307,13.972
		c3.953,3.463,9.489,5.121,14.695,4.402l15.783-2.177c2.596-0.358,5.063,1.243,5.792,3.761l4.432,15.304
		c3.054,10.548,15.28,16.238,25.327,11.711l14.529-6.535c2.39-1.076,5.208-0.233,6.617,1.977l7.021,11.015l42.655-42.655
		C256.128,355.849,256.128,350.836,253.036,347.742z"/>
</g>
<path style="fill:#458FDE;" d="M455.084,197.284l-17.131-15.017c-2.957-2.592-3.563-6.961-1.425-10.26l12.272-18.938
	c2.554-3.941,1.194-9.632-3.199-11.669l-20.668-9.581c-3.568-1.653-5.38-5.675-4.259-9.443l6.438-21.627
	c1.388-4.664-1.504-9.571-6.357-10.296l-22.53-3.371c-3.889-0.582-6.761-3.929-6.747-7.862l0.084-22.579
	c0.018-4.7-4.212-8.726-9-8.076l-22.567,3.114c-3.895,0.537-7.594-1.865-8.688-5.642l-6.287-21.711
	c-1.304-4.501-6.51-7.164-10.903-5.189l-20.775,9.344c-3.586,1.613-7.812,0.351-9.926-2.966L291.279,6.472
	c-2.522-3.956-8.265-5.068-11.935-1.925l-17.302,14.819c-2.986,2.558-7.397,2.537-10.36-0.049l-17.16-14.982
	c-3.682-3.213-9.405-2.103-11.977,1.848l-12.293,18.892c-2.144,3.295-6.382,4.519-9.953,2.872l-20.685-9.54
	c-4.42-2.04-9.612,0.617-10.964,5.123l-6.481,21.614c-1.13,3.766-4.851,6.133-8.741,5.56l-22.536-3.327
	c-4.709-0.689-9.048,3.146-9.076,7.88l-0.129,22.69c-0.022,3.932-2.927,7.252-6.821,7.797l-22.561,3.158
	c-4.86,0.681-7.798,5.56-6.453,10.237l6.234,21.686c1.086,3.779-0.765,7.782-4.348,9.403l-20.757,9.385
	c-4.427,2.003-5.832,7.662-3.312,11.633l12.095,19.06c2.107,3.319,1.458,7.683-1.522,10.247l-17.113,14.716
	c-3.56,3.062-3.857,8.905-0.215,12.095l17.132,15.017c2.957,2.592,3.564,6.961,1.425,10.26l-12.277,18.947
	c-2.553,3.939-1.184,9.627,3.204,11.661l20.666,9.58c3.568,1.653,5.381,5.675,4.259,9.443l-6.439,21.631
	c-1.387,4.661,1.508,9.567,6.358,10.292l22.53,3.371c3.889,0.582,6.761,3.929,6.747,7.861l-0.084,22.567
	c-0.018,4.697,4.203,8.747,9,8.086l22.567-3.114c3.895-0.537,7.594,1.865,8.688,5.642l6.288,21.715
	c1.303,4.498,6.513,7.163,10.902,5.185l20.775-9.345c3.586-1.613,7.813-0.351,9.926,2.966l12.12,19.015
	c2.528,3.966,8.265,5.112,11.953,1.952l17.302-14.819c2.986-2.558,7.397-2.537,10.36,0.049l17.16,14.982
	c3.53,3.084,9.271,2.31,11.845-1.646l12.425-19.093c2.144-3.295,6.382-4.519,9.953-2.872l20.685,9.54
	c4.43,2.046,9.616-0.628,10.969-5.139l6.475-21.598c1.13-3.766,4.851-6.133,8.741-5.56l22.328,3.296
	c4.812,0.711,9.254-2.855,9.283-7.758l0.13-22.78c0.022-3.932,2.927-7.252,6.822-7.797l22.35-3.127
	c4.651-0.65,8.06-5.406,6.722-10.06l-6.293-21.893c-1.086-3.779,0.765-7.782,4.348-9.403l20.562-9.297
	c4.279-1.935,6.213-7.457,3.617-11.546l-12.206-19.235c-2.106-3.319-1.458-7.683,1.522-10.247l17.113-14.716
	C458.429,206.318,458.726,200.474,455.084,197.284z"/>
<circle style="fill:#FB9D46;" cx="256.003" cy="202.325" r="152.037"/>
<circle style="fill:#FFD652;" cx="256.003" cy="202.325" r="130.921"/>
<polygon style="fill:#FF7452;" points="323.572,115.611 188.428,115.611 144.084,183.183 256,316.216 367.916,183.183 "/>
<polygon style="fill:#E24642;" points="255.116,115.611 188.428,115.611 144.084,183.183 256,316.216 259.066,312.572 
	220.102,181.072 "/>
<path style="fill:#C42725;" d="M374.537,178.839l-44.344-67.572c-1.446-2.199-3.984-3.574-6.621-3.574H188.428
	c-2.668,0-5.157,1.343-6.621,3.574l-44.344,67.572c-1.919,2.926-1.692,6.765,0.561,9.442l111.916,133.032
	c1.505,1.789,3.723,2.821,6.059,2.821s4.555-1.033,6.059-2.821l111.916-133.032C376.228,185.603,376.456,181.764,374.537,178.839z
	 M187.103,132.064l21.913,41.089h-48.879L187.103,132.064z M279.523,188.99l-23.522,89.68l-23.523-89.68H279.523z M235.411,173.153
	L256,134.549l20.588,38.604H235.411z M268.072,123.53h42.503l-20.903,40.5L268.072,123.53z M222.214,164.245L200.5,123.53h43.429
	L222.214,164.245z M216.105,188.99l25.727,98.083l-82.515-98.083H216.105z M295.896,188.99h56.787l-82.514,98.083L295.896,188.99z
	 M302.784,173.153l21.606-41.862l27.472,41.862H302.784z"/>
<g>
	<path style="fill:#E24642;" d="M504.103,46.524c-5.376-0.715-18.924-3.708-28.597-16.04c-6.872-8.767-8.522-18.278-8.894-23.167
		C466.297,3.19,462.856,0,458.715,0c-4.141,0-7.582,3.19-7.896,7.318c-0.373,4.889-2.023,14.4-8.894,23.167
		c-9.673,12.333-23.221,15.326-28.597,16.04c-3.936,0.523-6.875,3.879-6.875,7.85s2.94,7.326,6.875,7.85
		c5.376,0.715,18.924,3.708,28.597,16.04c6.872,8.767,8.523,18.278,8.894,23.167c0.315,4.128,3.756,7.318,7.896,7.318
		c4.141,0,7.582-3.19,7.896-7.318c0.373-4.889,2.023-14.4,8.893-23.166c9.674-12.334,23.223-15.327,28.598-16.041
		c3.936-0.523,6.875-3.879,6.875-7.85S508.039,47.048,504.103,46.524z"/>
	<path style="fill:#E24642;" d="M98.671,46.524c-5.375-0.715-18.923-3.708-28.597-16.04c-6.872-8.767-8.523-18.278-8.894-23.167
		C60.866,3.19,57.425,0,53.284,0s-7.582,3.19-7.896,7.318c-0.373,4.889-2.023,14.4-8.893,23.166
		C26.821,42.817,13.273,45.811,7.898,46.524c-3.936,0.523-6.875,3.879-6.875,7.85s2.94,7.326,6.875,7.85
		c5.376,0.715,18.924,3.708,28.597,16.04c6.872,8.767,8.523,18.278,8.894,23.167c0.315,4.128,3.756,7.318,7.896,7.318
		s7.582-3.19,7.896-7.318c0.373-4.889,2.023-14.4,8.893-23.166c9.674-12.334,23.223-15.327,28.598-16.041
		c3.936-0.523,6.875-3.879,6.875-7.85S102.607,47.048,98.671,46.524z"/>
	<path style="fill:#E24642;" d="M301.387,445.621c-5.375-0.715-18.923-3.708-28.597-16.04c-6.872-8.767-8.523-18.278-8.894-23.167
		c-0.315-4.128-3.756-7.318-7.896-7.318s-7.582,3.19-7.896,7.318c-0.373,4.889-2.023,14.4-8.893,23.166
		c-9.674,12.334-23.223,15.327-28.598,16.041c-3.936,0.523-6.875,3.879-6.875,7.85s2.94,7.326,6.875,7.85
		c5.376,0.715,18.924,3.708,28.597,16.04c6.872,8.767,8.523,18.278,8.894,23.167c0.315,4.128,3.756,7.318,7.896,7.318
		s7.582-3.19,7.896-7.318c0.373-4.889,2.023-14.4,8.893-23.166c9.674-12.334,23.223-15.327,28.598-16.041
		c3.936-0.523,6.875-3.879,6.875-7.85S305.323,446.145,301.387,445.621z"/>
</g>
</svg>